<?xml version="1.0" encoding="UTF-8"?>
<svg width="24" height="24" viewBox="0 0 24 24" fill="none" xmlns="http://www.w3.org/2000/svg">
  <path d="M12 14C13.1046 14 14 13.1046 14 12C14 10.8954 13.1046 10 12 10C10.8954 10 10 10.8954 10 12C10 13.1046 10.8954 14 12 14Z" stroke="#5A0028" stroke-width="2" stroke-linecap="round" stroke-linejoin="round"/>
  <path d="M12 6C7.58172 6 4 8.68629 4 12C4 15.3137 7.58172 18 12 18C16.4183 18 20 15.3137 20 12C20 8.68629 16.4183 6 12 6Z" stroke="#5A0028" stroke-width="2" stroke-linecap="round" stroke-linejoin="round"/>
  <path d="M12 2C6.47715 2 2 6.47715 2 12C2 17.5228 6.47715 22 12 22C17.5228 22 22 17.5228 22 12C22 6.47715 17.5228 2 12 2Z" stroke="#5A0028" stroke-width="2" stroke-linecap="round" stroke-linejoin="round"/>
</svg>
